# xmcd
# 
# Track frame offsets:
#     150
#     15629
#     26234
#     41728
#     55786
#     72197
#     90595
#     103883
#     117534
#     136597
# 
# Disc length: 2059
# 
# Revision: 3
# Processed by: cddbd v1.5.2PL0 Copyright (c) Steve Scherf et al.
# Submitted via: fre:ac v1.1beta1pre5
# 
DISCID=8508090a
DTITLE=Leon Bridges - Coming Home
DYEAR=2015
DGENRE=Soul
TTITLE0=Coming Home
TTITLE1=Better Man
TTITLE2=Brown Skin Girl
TTITLE3=Smooth Sailin'
TTITLE4=Shine
TTITLE5=Lisa Sawyer
TTITLE6=Flowers
TTITLE7=Pull Away
TTITLE8=Twistin' and Groovin'
TTITLE9=River
EXTD=
EXTT0=
EXTT1=
EXTT2=
EXTT3=
EXTT4=
EXTT5=
EXTT6=
EXTT7=
EXTT8=
EXTT9=
PLAYORDER=
